<?xml version="1.0" encoding="UTF-8" standalone="no"?>
<svg
   xmlns:dc="http://purl.org/dc/elements/1.1/"
   xmlns:cc="http://creativecommons.org/ns#"
   xmlns:rdf="http://www.w3.org/1999/02/22-rdf-syntax-ns#"
   xmlns:svg="http://www.w3.org/2000/svg"
   xmlns="http://www.w3.org/2000/svg"
   xmlns:sodipodi="http://sodipodi.sourceforge.net/DTD/sodipodi-0.dtd"
   xmlns:inkscape="http://www.inkscape.org/namespaces/inkscape"
   height="373.00482"
   viewBox="46.9 24 852.73235 140.28976"
   width="2447.7029"
   version="1.1"
   id="svg6"
   sodipodi:docname="2.svg"
   inkscape:version="0.92.4 5da689c313, 2019-01-14">
  <metadata
     id="metadata12">
    <rdf:RDF>
      <cc:Work
         rdf:about="">
        <dc:format>image/svg+xml</dc:format>
        <dc:type
           rdf:resource="http://purl.org/dc/dcmitype/StillImage" />
        <dc:title></dc:title>
      </cc:Work>
    </rdf:RDF>
  </metadata>
  <defs
     id="defs10" />
  <sodipodi:namedview
     pagecolor="#ffffff"
     bordercolor="#666666"
     borderopacity="1"
     objecttolerance="10"
     gridtolerance="10"
     guidetolerance="10"
     inkscape:pageopacity="0"
     inkscape:pageshadow="2"
     inkscape:window-width="1920"
     inkscape:window-height="1024"
     id="namedview8"
     showgrid="false"
     fit-margin-top="0"
     fit-margin-left="0"
     fit-margin-right="0"
     fit-margin-bottom="0"
     inkscape:zoom="0.31112698"
     inkscape:cx="1600.0639"
     inkscape:cy="402.89708"
     inkscape:window-x="0"
     inkscape:window-y="28"
     inkscape:window-maximized="1"
     inkscape:current-layer="svg6" />
  <path
     d="m 56.348201,69.062779 c 13.178734,0 24.125593,6.801919 29.333305,14.135249 V 70.86954 h 20.086954 v 91.50718 H 91.314356 a 5.7157451,5.7157451 0 0 1 -5.73912,-5.73913 v -6.58936 c -5.101442,7.43961 -16.048301,14.24153 -29.227035,14.24153 -25.082109,0 -44.106251,-21.46858 -44.106251,-47.61349 0,-26.144912 18.917862,-47.613491 44.106251,-47.613491 m 3.507245,18.280179 c -16.26086,0 -27.313993,12.859892 -27.313993,29.333312 0,16.47341 10.946854,29.33331 27.313993,29.33331 16.260863,0 27.31399,-12.8599 27.31399,-29.33331 0,-16.47342 -10.840568,-29.333312 -27.31399,-29.333312 M 128.61868,70.86954 h 20.19323 v 12.434768 c 5.52656,-9.14009 15.94202,-14.241529 27.84539,-14.241529 21.25603,0 34.96616,14.985489 34.96616,38.260841 v 55.0531 h -14.45409 a 5.7157451,5.7157451 0 0 1 -5.73913,-5.73913 V 110.6183 c 0,-14.454102 -7.33334,-23.275342 -19.02414,-23.275342 -13.3913,0 -23.59419,10.41544 -23.59419,29.970992 v 45.06277 h -14.4541 a 5.7157451,5.7157451 0 0 1 -5.73913,-5.73913 z m 143.05305,-1.806761 c 13.17874,0 24.12559,6.801919 29.33332,14.135249 V 25.169082 h 20.08694 V 162.483 h -14.4541 a 5.7157451,5.7157451 0 0 1 -5.73913,-5.73912 v -6.58938 c -5.10144,7.33334 -16.15457,14.13526 -29.33331,14.13526 -25.08211,0 -44.10625,-21.46858 -44.10625,-47.61349 0.10628,-26.144912 19.13042,-47.613491 44.21253,-47.613491 m 3.61353,18.280179 c -16.26086,0 -27.314,12.859892 -27.314,29.333312 0,16.47341 10.94685,29.33331 27.314,29.33331 16.26085,0 27.31398,-12.8599 27.31398,-29.33331 0,-16.47342 -11.05313,-29.333312 -27.31398,-29.333312 M 343.94222,70.86954 h 20.08694 v 16.260848 a 25.783558,25.783558 0 0 1 24.12559,-17.217378 40.939103,40.939103 0 0 1 7.86473,0.743971 v 20.724617 a 32.459013,32.459013 0 0 0 -10.09662,-1.70048 c -11.58453,0 -21.99998,9.671491 -21.99998,28.057952 v 44.63765 h -14.4541 a 5.7157451,5.7157451 0 0 1 -5.73913,-5.73913 V 70.86954 Z m 106.49268,93.42022 c -27.10143,0 -47.93233,-21.04346 -47.93233,-47.61349 0,-26.570032 20.8309,-47.613491 47.93233,-47.613491 27.10143,0 47.93234,21.043459 47.93234,47.613491 0,26.57003 -20.83091,47.61349 -47.93234,47.61349 m 0,-18.7053 c 16.15458,0 27.42027,-12.64734 27.42027,-28.90819 0,-16.26086 -11.37197,-28.908201 -27.42027,-28.908201 -16.26086,0 -27.63283,12.647341 -27.63283,28.908201 0,16.26085 11.37197,28.90819 27.63283,28.90819 m 74.2898,-94.695588 a 13.444436,13.444436 0 1 1 0,-26.888871 13.444436,13.444436 0 0 1 0,26.888871 m -9.99033,19.980668 h 20.08695 v 91.50718 h -14.4541 a 5.7157451,5.7157451 0 0 1 -5.73912,-5.73913 c 0.10627,0 0.10627,-85.76805 0.10627,-85.76805 z m 80.7729,-1.80676 c 13.17874,0 24.12558,6.801919 29.33331,14.135249 V 25.169082 h 20.08695 V 162.483 h -14.4541 a 5.7157451,5.7157451 0 0 1 -5.73913,-5.73912 v -6.58938 c -5.10145,7.33334 -16.15458,14.13526 -29.33332,14.13526 -25.0821,0 -44.10624,-21.46858 -44.10624,-47.61349 0.10628,-26.144912 19.13042,-47.613491 44.21253,-47.613491 m 3.71981,18.280179 c -16.26086,0 -27.314,12.859892 -27.314,29.333312 0,16.47341 10.94685,29.33331 27.314,29.33331 16.26085,0 27.31398,-12.8599 27.31398,-29.33331 0,-16.47342 -11.05313,-29.333312 -27.31398,-29.333312"
     id="path2"
     inkscape:connector-curvature="0"
     style="stroke-width:1.06280124" />
  <path
     d="m 867.15926,128.16621 a 10.202892,10.202892 0 1 1 10.2029,-10.20289 10.205017,10.205017 0 0 1 -10.2029,10.20289 m -112.33809,0 a 10.202892,10.202892 0 1 1 10.2029,-10.20289 10.205017,10.205017 0 0 1 -10.2029,10.20289 M 870.77279,66.948864 891.17857,31.770139 a 4.2118813,4.2118813 0 1 0 -7.33333,-4.144924 L 863.2269,63.229065 A 124.53692,124.53692 0 0 0 811.04336,51.963363 126.63489,126.63489 0 0 0 758.75354,63.122781 L 738.02892,27.518935 a 4.2118813,4.2118813 0 1 0 -7.33334,4.144925 l 20.29951,35.17873 a 120.21026,120.21026 0 0 0 -62.28016,96.07722 H 932.84038 A 119.72881,119.72881 0 0 0 870.77279,66.948864"
     id="path4"
     inkscape:connector-curvature="0"
     style="fill:#3ddc84;stroke-width:1.06280124" />
</svg>
