<?xml version="1.0" encoding="UTF-8" standalone="no"?>
<!-- Generator: Adobe Illustrator 22.1.0, SVG Export Plug-In . SVG Version: 6.00 Build 0)  -->

<svg
   xmlns:dc="http://purl.org/dc/elements/1.1/"
   xmlns:cc="http://creativecommons.org/ns#"
   xmlns:rdf="http://www.w3.org/1999/02/22-rdf-syntax-ns#"
   xmlns:svg="http://www.w3.org/2000/svg"
   xmlns="http://www.w3.org/2000/svg"
   xmlns:sodipodi="http://sodipodi.sourceforge.net/DTD/sodipodi-0.dtd"
   xmlns:inkscape="http://www.inkscape.org/namespaces/inkscape"
   version="1.1"
   id="Layer_1"
   x="0px"
   y="0px"
   viewBox="0 0 136.39424 24.872183"
   xml:space="preserve"
   width="136.39424"
   height="24.872183"
   sodipodi:docname="5-stars.svg"
   inkscape:version="0.92.4 5da689c313, 2019-01-14"><metadata
   id="metadata105"><rdf:RDF><cc:Work
       rdf:about=""><dc:format>image/svg+xml</dc:format><dc:type
         rdf:resource="http://purl.org/dc/dcmitype/StillImage" /><dc:title></dc:title></cc:Work></rdf:RDF></metadata><defs
   id="defs103">
	
	
	
	
	
	
	
	
	
	
	
	
	
	
</defs><sodipodi:namedview
   pagecolor="#ffffff"
   bordercolor="#666666"
   borderopacity="1"
   objecttolerance="10"
   gridtolerance="10"
   guidetolerance="10"
   inkscape:pageopacity="0"
   inkscape:pageshadow="2"
   inkscape:window-width="1920"
   inkscape:window-height="1024"
   id="namedview101"
   showgrid="false"
   fit-margin-top="0"
   fit-margin-left="0"
   fit-margin-right="0"
   fit-margin-bottom="0"
   inkscape:zoom="1.3037281"
   inkscape:cx="108.8596"
   inkscape:cy="31.59651"
   inkscape:window-x="0"
   inkscape:window-y="28"
   inkscape:window-maximized="1"
   inkscape:current-layer="Layer_1" />
<style
   type="text/css"
   id="style2">
	.st0{fill:#DB9C2E;}
	.st1{fill:#BF6C0D;}
	.st2{fill:#F9BB32;}
	.st3{fill:#FCE575;}
	.st4{fill:#FFD551;}
	.st5{fill:#FFC34C;}
	.st6{fill:#FFDF74;}
	.st7{fill:#FFA730;}
	.st8{fill:#FFF4C1;}
	.st9{fill:#FFEACF;}
	.st10{fill:#FF624B;}
	.st11{fill:#CCC033;}
	.st12{fill:#8C4C17;}
	.st13{fill:#FFD59A;}
	.st14{fill:#99AF17;}
	.st15{fill:#FCF9DE;}
	.st16{fill:#E58D23;}
	.st17{fill:#A56021;}
	.st18{fill:#FF4B34;}
	.st19{fill:#FF9079;}
	.st20{fill:#EACF32;}
	.st21{fill:#FFB74B;}
	.st22{fill:#FCDA4F;}
	.st23{fill:#FFEA63;}
</style>
<g
   id="g14"
   transform="matrix(0.35859556,0,0,0.35859556,-17.11343,-30.56908)">
		<g
   id="g12">
			<path
   style="fill:#ffc34c"
   inkscape:connector-curvature="0"
   id="path10"
   d="m 79.796,88.275 -7.535,15.268 c -0.778,1.577 -2.283,2.67 -4.023,2.923 l -16.85,2.448 c -3.506,0.509 -4.906,4.818 -2.369,7.29 l 12.193,11.885 c 1.259,1.227 1.834,2.996 1.537,4.729 L 59.871,149.6 c -0.599,3.492 3.066,6.154 6.202,4.506 l 15.071,-7.923 c 1.556,-0.818 3.416,-0.818 4.972,0 l 15.071,7.923 c 3.136,1.649 6.8,-1.014 6.202,-4.506 l -2.878,-16.782 c -0.297,-1.733 0.277,-3.502 1.537,-4.729 l 12.193,-11.885 c 2.537,-2.473 1.137,-6.781 -2.369,-7.29 l -16.85,-2.448 c -1.74,-0.253 -3.245,-1.346 -4.023,-2.923 L 87.464,88.275 c -1.57,-3.176 -6.1,-3.176 -7.668,0 z"
   class="st5" />
		</g>
	</g><g
   id="g20"
   transform="matrix(0.35859556,0,0,0.35859556,-17.11343,-30.56908)">
		<g
   id="g18">
			<path
   style="fill:#ffc34c"
   inkscape:connector-curvature="0"
   id="path16"
   d="m 164.813,88.275 -7.535,15.268 c -0.778,1.577 -2.283,2.67 -4.023,2.923 l -16.85,2.448 c -3.506,0.509 -4.906,4.818 -2.369,7.29 l 12.193,11.885 c 1.259,1.227 1.834,2.996 1.537,4.729 l -2.878,16.782 c -0.599,3.492 3.066,6.154 6.202,4.506 l 15.071,-7.923 c 1.556,-0.818 3.416,-0.818 4.972,0 l 15.071,7.923 c 3.136,1.649 6.8,-1.014 6.202,-4.506 l -2.878,-16.782 c -0.297,-1.733 0.277,-3.502 1.537,-4.729 l 12.193,-11.885 c 2.537,-2.473 1.137,-6.781 -2.369,-7.29 l -16.85,-2.448 c -1.74,-0.253 -3.245,-1.346 -4.023,-2.923 l -7.535,-15.268 c -1.571,-3.176 -6.101,-3.176 -7.668,0 z"
   class="st5" />
		</g>
	</g><g
   id="g26"
   transform="matrix(0.35859556,0,0,0.35859556,-17.11343,-30.56908)">
		<g
   id="g24">
			<path
   style="fill:#ffc34c"
   inkscape:connector-curvature="0"
   id="path22"
   d="m 249.829,88.275 -7.535,15.268 c -0.778,1.577 -2.283,2.67 -4.023,2.923 l -16.85,2.448 c -3.506,0.509 -4.906,4.818 -2.369,7.29 l 12.193,11.885 c 1.259,1.227 1.834,2.996 1.537,4.729 l -2.878,16.782 c -0.599,3.492 3.066,6.154 6.202,4.506 l 15.071,-7.923 c 1.556,-0.818 3.416,-0.818 4.972,0 l 15.071,7.923 c 3.136,1.649 6.8,-1.014 6.202,-4.506 l -2.878,-16.782 c -0.297,-1.733 0.277,-3.502 1.537,-4.729 l 12.193,-11.885 c 2.537,-2.473 1.137,-6.781 -2.369,-7.29 l -16.85,-2.448 c -1.74,-0.253 -3.245,-1.346 -4.023,-2.923 l -7.535,-15.268 c -1.57,-3.176 -6.1,-3.176 -7.668,0 z"
   class="st5" />
		</g>
	</g><g
   id="g32"
   transform="matrix(0.35859556,0,0,0.35859556,-17.11343,-30.56908)">
		<g
   id="g30">
			<path
   style="fill:#ffc34c"
   inkscape:connector-curvature="0"
   id="path28"
   d="m 338.503,88.275 -7.535,15.268 c -0.778,1.577 -2.283,2.67 -4.023,2.923 l -16.85,2.448 c -3.506,0.509 -4.906,4.818 -2.369,7.29 l 12.193,11.885 c 1.259,1.227 1.834,2.996 1.537,4.729 l -2.878,16.782 c -0.599,3.492 3.066,6.154 6.202,4.506 l 15.071,-7.923 c 1.556,-0.818 3.416,-0.818 4.972,0 l 15.071,7.923 c 3.136,1.649 6.8,-1.014 6.202,-4.506 l -2.878,-16.782 c -0.297,-1.733 0.277,-3.502 1.537,-4.729 l 12.193,-11.885 c 2.537,-2.473 1.137,-6.781 -2.369,-7.29 l -16.85,-2.448 c -1.74,-0.253 -3.245,-1.346 -4.023,-2.923 l -7.535,-15.268 c -1.57,-3.176 -6.1,-3.176 -7.668,0 z"
   class="st5" />
		</g>
	</g><g
   id="g38"
   transform="matrix(0.35859556,0,0,0.35859556,-17.11343,-30.56908)">
		<g
   id="g36">
			<path
   style="fill:#ffc34c"
   inkscape:connector-curvature="0"
   id="path34"
   d="m 426.262,88.275 -7.535,15.268 c -0.778,1.577 -2.283,2.67 -4.023,2.923 l -16.85,2.448 c -3.506,0.509 -4.906,4.818 -2.369,7.29 l 12.193,11.885 c 1.259,1.227 1.834,2.996 1.537,4.729 l -2.878,16.782 c -0.599,3.492 3.066,6.154 6.202,4.506 l 15.071,-7.923 c 0.47022,-60.935231 0,0 0.47022,-60.935231 0,0 -0.25022,-0.148769 -1.81822,3.027231 z"
   class="st5"
   sodipodi:nodetypes="cccccccccccc" />
		</g>
	</g>
</svg>