<?xml version="1.0" encoding="UTF-8" standalone="no"?>
<svg
   xmlns:dc="http://purl.org/dc/elements/1.1/"
   xmlns:cc="http://creativecommons.org/ns#"
   xmlns:rdf="http://www.w3.org/1999/02/22-rdf-syntax-ns#"
   xmlns:svg="http://www.w3.org/2000/svg"
   xmlns="http://www.w3.org/2000/svg"
   xmlns:sodipodi="http://sodipodi.sourceforge.net/DTD/sodipodi-0.dtd"
   xmlns:inkscape="http://www.inkscape.org/namespaces/inkscape"
   height="99.025833"
   width="99.025833"
   viewBox="-9.3101967 -9.3101967 7.9458406 7.945801"
   version="1.1"
   id="svg15"
   sodipodi:docname="like.svg"
   inkscape:version="0.92.4 5da689c313, 2019-01-14">
  <metadata
     id="metadata21">
    <rdf:RDF>
      <cc:Work
         rdf:about="">
        <dc:format>image/svg+xml</dc:format>
        <dc:type
           rdf:resource="http://purl.org/dc/dcmitype/StillImage" />
        <dc:title></dc:title>
      </cc:Work>
    </rdf:RDF>
  </metadata>
  <defs
     id="defs19" />
  <sodipodi:namedview
     pagecolor="#ffffff"
     bordercolor="#666666"
     borderopacity="1"
     objecttolerance="10"
     gridtolerance="10"
     guidetolerance="10"
     inkscape:pageopacity="0"
     inkscape:pageshadow="2"
     inkscape:window-width="1920"
     inkscape:window-height="1024"
     id="namedview17"
     showgrid="false"
     fit-margin-top="0"
     fit-margin-left="0"
     fit-margin-right="0"
     fit-margin-bottom="0"
     inkscape:zoom="1.0680141"
     inkscape:cx="303.17313"
     inkscape:cy="-245.71975"
     inkscape:window-x="0"
     inkscape:window-y="28"
     inkscape:window-maximized="1"
     inkscape:current-layer="svg15" />
  <linearGradient
     id="a"
     x1="90.022514"
     x2="90.022514"
     y1="-6.4923534"
     y2="184.79666"
     gradientUnits="userSpaceOnUse">
    <stop
       offset="0"
       stop-color="#37aeff"
       id="stop2" />
    <stop
       offset=".05"
       stop-color="#37aeff"
       id="stop4" />
    <stop
       offset="1"
       stop-color="#1861f7"
       id="stop6" />
  </linearGradient>
  <g
     id="g32"
     transform="matrix(1.4146548,0,0,1.4146548,-9.3101909,-9.5342576)">
    <g
       transform="matrix(0.97257581,0,0,0.97257581,-1.124636e-7,0.15837966)"
       id="g26">
      <g
         id="g13"
         transform="matrix(0.03019089,0,0,0.03019089,-3.9770809e-6,-3.977081e-6)"
         style="fill:none">
        <path
           d="m 0,95.645 c 0,52.823 42.822,95.644 95.645,95.644 52.823,0 95.644,-42.821 95.644,-95.644 C 191.29,42.822 148.468,0 95.645,0 A 95.617,95.617 0 0 0 0,95.645"
           id="path9"
           style="fill:url(#a)"
           inkscape:connector-curvature="0" />
        <path
           d="m 151.421,99.986 a 9.095,9.095 0 0 0 -3.901,-8.737 18.08,18.08 0 0 0 3.6,-8.628 c 0,-8.463 -7.941,-10.99 -20.168,-10.99 -7.27,0.08 -14.51,0.936 -21.597,2.555 0.66,-3.627 5.496,-14.15 5.496,-17.667 0,-7.31 -1.731,-16.486 -8.436,-19.976 a 11.925,11.925 0 0 0 -6.154,-1.593 c -2.68,-0.126 -5.303,0.8 -7.309,2.583 a 6.32,6.32 0 0 0 -0.742,3.681 l 1.21,13.738 c 0,10.99 -16.899,24.729 -16.899,40.528 v 33.136 c 0,5.88 7.886,10.056 19.234,10.056 h 31.46 c 8.243,0 10.084,-1.428 12.2,-5.275 a 7.583,7.583 0 0 0 -0.166,-8.023 12.364,12.364 0 0 0 7.749,-8.93 c 0.487,-2.412 0.118,-4.92 -1.044,-7.089 a 9.48,9.48 0 0 0 5.495,-9.369 M 48.743,80.945 h 9.836 a 8.243,8.243 0 0 1 8.243,8.243 V 135.1 a 8.243,8.243 0 0 1 -8.243,8.242 H 48.743 A 8.243,8.243 0 0 1 40.5,135.1 V 89.298 a 8.243,8.243 0 0 1 8.243,-8.243"
           id="path11"
           inkscape:connector-curvature="0"
           style="fill:#ffffff" />
      </g>
    </g>
  </g>
</svg>
