<?xml version="1.0" encoding="UTF-8" standalone="no"?>
<svg
   xmlns:dc="http://purl.org/dc/elements/1.1/"
   xmlns:cc="http://creativecommons.org/ns#"
   xmlns:rdf="http://www.w3.org/1999/02/22-rdf-syntax-ns#"
   xmlns:svg="http://www.w3.org/2000/svg"
   xmlns="http://www.w3.org/2000/svg"
   xmlns:sodipodi="http://sodipodi.sourceforge.net/DTD/sodipodi-0.dtd"
   xmlns:inkscape="http://www.inkscape.org/namespaces/inkscape"
   viewBox="0 0 99.685368 18.915788"
   width="263.32779"
   height="49.999996"
   version="1.1"
   id="svg6"
   sodipodi:docname="logo.svg"
   inkscape:version="0.92.4 5da689c313, 2019-01-14">
  <metadata
     id="metadata12">
    <rdf:RDF>
      <cc:Work
         rdf:about="">
        <dc:format>image/svg+xml</dc:format>
        <dc:type
           rdf:resource="http://purl.org/dc/dcmitype/StillImage" />
        <dc:title></dc:title>
      </cc:Work>
    </rdf:RDF>
  </metadata>
  <defs
     id="defs10" />
  <sodipodi:namedview
     pagecolor="#ffffff"
     bordercolor="#666666"
     borderopacity="1"
     objecttolerance="10"
     gridtolerance="10"
     guidetolerance="10"
     inkscape:pageopacity="0"
     inkscape:pageshadow="2"
     inkscape:window-width="1920"
     inkscape:window-height="1024"
     id="namedview8"
     showgrid="false"
     fit-margin-top="0"
     fit-margin-left="0"
     fit-margin-right="0"
     fit-margin-bottom="0"
     inkscape:zoom="1.76"
     inkscape:cx="287.65623"
     inkscape:cy="8.3467468"
     inkscape:window-x="0"
     inkscape:window-y="28"
     inkscape:window-maximized="1"
     inkscape:current-layer="svg6" />
  <path
     d="M 60.902452,3.5232611 V 15.952333 h 3.507527 V 3.5232611 Z M 33.305699,3.5021911 V 15.9418 h 3.539126 V 6.2829361 l 2.759674,0.01052 c 0.905849,0 1.537836,0.221195 1.969692,0.684652 0.558256,0.589855 0.779451,1.548368 0.779451,3.2863309 v 5.677347 h 3.433793 V 9.0742111 c 0,-4.908429 -3.128334,-5.572015 -6.182936,-5.572015 z m 33.253034,0.02107 V 15.952333 h 5.687879 c 3.033539,0 4.02365,-0.50559 5.087494,-1.632633 0.758384,-0.789984 1.242908,-2.538479 1.242908,-4.4449729 0,-1.748496 -0.410792,-3.307397 -1.137575,-4.276443 -1.285042,-1.737964 -3.159935,-2.075023 -5.961743,-2.075023 z m 3.475926,2.696476 h 1.506237 c 2.190887,0 3.602323,0.97958 3.602323,3.528593 0,2.5490129 -1.411436,3.5391249 -3.602323,3.5391249 H 70.034659 Z M 55.84656,3.5232611 52.918352,13.37172 50.116547,3.5232611 h -3.791923 l 4.002583,12.4290719 h 5.055895 L 59.427816,3.5232611 Z M 80.22018,15.952333 h 3.507525 V 3.5232611 H 80.22018 Z M 90.05811,3.5232611 85.160207,15.9418 h 3.454866 l 0.779445,-2.20142 h 5.793212 l 0.737321,2.190887 h 3.76032 L 94.745337,3.5232611 Z m 2.275151,2.264619 2.12769,5.8142779 H 90.14237 Z"
     id="path2"
     inkscape:connector-curvature="0"
     style="stroke-width:0.1053311" />
  <path
     d="m 10.670042,5.5877511 v -1.706364 c 0.168531,-0.01052 0.33706,-0.02107 0.50559,-0.02107 4.676701,-0.147464 7.741836,4.023648 7.741836,4.023648 0,0 -3.307397,4.5924379 -6.857055,4.5924379 -0.47399,0 -0.937447,-0.07373 -1.379837,-0.221196 V 7.0729191 c 1.822228,0.221196 2.190887,1.021712 3.275797,2.843941 l 2.433149,-2.043424 c 0,0 -1.780096,-2.327818 -4.7715,-2.327818 -0.315994,-0.01052 -0.631987,0.01052 -0.94798,0.04213 m 0,-5.6457481 v 2.5490131 l 0.50559,-0.0316 c 6.498929,-0.221196 10.743774,5.329754 10.743774,5.329754 0,0 -4.866298,5.9196089 -9.932725,5.9196089 -0.44239,0 -0.874248,-0.04213 -1.306105,-0.115865 v 1.579968 c 0.358125,0.04213 0.726784,0.07373 1.08491,0.07373 4.718834,0 8.131562,-2.412082 11.438959,-5.2560219 0.547722,0.4423919 2.791275,1.5062359 3.254731,1.9696929 -3.138867,2.633277 -10.459379,4.750432 -14.609426,4.750432 -0.400258,0 -0.77945,-0.02107 -1.158642,-0.0632 v 2.222486 H 28.618465 V -0.057997 Z m 0,12.313207 v 1.348239 C 6.3093339,12.823996 5.0980262,8.2842241 5.0980262,8.2842241 c 0,0 2.0960887,-2.317284 5.5720158,-2.696476 v 1.474635 h -0.01052 c -1.8222421,-0.221195 -3.2547451,1.485169 -3.2547451,1.485169 0,0 0.811049,2.8755399 3.2652641,3.7076549 M 2.928205,8.0946311 c 0,0 2.5806129,-3.812986 7.752371,-4.213244 V 2.4910161 C 4.9505626,2.9544731 0,7.7997041 0,7.7997041 c 0,0 2.8018077,8.1104959 10.670042,8.8478139 V 15.172882 C 4.8978968,14.45663 2.928205,8.0946311 2.928205,8.0946311 Z"
     id="path4"
     inkscape:connector-curvature="0"
     style="fill:#76b900;stroke-width:0.1053311" />
</svg>
